<?xml version="1.0" standalone="no"?>
<!DOCTYPE svg PUBLIC "-//W3C//DTD SVG 1.1//EN" "http://www.w3.org/Graphics/SVG/1.1/DTD/svg11.dtd" >
<svg>
<metadata>
Created by FontForge 20120731 at Fri Mar 22 22:29:09 2019
 By www-data
(c) 2019 . All rights reserved.
</metadata>
<defs>
<font id="MFYueHeiNoncommercial-Regular" horiz-adv-x="604" >
  <font-face 
    font-family="MF YueHei(Noncommercial)"
    font-weight="400"
    font-stretch="normal"
    units-per-em="1000"
    panose-1="0 0 0 0 0 0 0 0 0 0"
    ascent="880"
    descent="-120"
    x-height="495"
    cap-height="687"
    bbox="-39 -224 845 791"
    underline-thickness="50"
    underline-position="-50"
    unicode-range="U+0021-007E"
  />
<missing-glyph horiz-adv-x="1000" 
d="M143 791h702v-877h-702v877zM773 748h-558l279 -359zM801 -6v718l-279 -359zM773 -42l-279 359l-279 -359h558zM187 -6l279 359l-279 359v-718z" />
    <glyph glyph-name=".notdef" horiz-adv-x="1000" 
d="M143 791h702v-877h-702v877zM773 748h-558l279 -359zM801 -6v718l-279 -359zM773 -42l-279 359l-279 -359h558zM187 -6l279 359l-279 359v-718z" />
    <glyph glyph-name="numbersign" unicode="#" horiz-adv-x="660" 
d="M83 478h147l34 169l66 -13l-31 -156h108l33 169l67 -13l-31 -156h125v-68h-138l-25 -123h138v-68h-151l-38 -191l-66 13l35 178h-108l-38 -191l-66 13l35 178h-120v68h133l25 123h-134v68zM261 287h108l24 123h-107z" />
    <glyph glyph-name="dollar" unicode="$" 
d="M344 756v-96q35 -2 72 -5t77 -7l-7 -68q-39 4 -74.5 7t-67.5 5v-240q34 -17 67 -35t58.5 -41.5t41 -53t16.5 -69.5q0 -29 -8.5 -54.5t-30 -45.5t-57 -33t-87.5 -16v-92h-68v91q-35 2 -77.5 7t-93.5 16l13 66q92 -18 158 -21v237q-35 16 -68 34t-59 40.5t-42 51t-16 65.5
q-1 44 12 74t37 48.5t58.5 27.5t77.5 11v96h68zM159 499q0 -38 34.5 -65t82.5 -50v208q-54 -4 -86 -24t-31 -69zM459 151q-2 42 -35.5 71.5t-79.5 52.5v-203q33 3 55 10t35.5 17.5t19 24t5.5 27.5z" />
    <glyph glyph-name="percent" unicode="%" horiz-adv-x="794" 
d="M602 374q49 -2 72 -21t37 -57q8 -23 12 -53.5t4 -63.5q0 -31 -4 -60t-12 -54q-17 -46 -49.5 -63.5t-79.5 -16.5q-49 2 -72.5 21.5t-36.5 57.5q-8 23 -12 53.5t-4 62.5t4 61.5t12 52.5q17 46 50 63.5t79 16.5zM212 689q48 -2 72.5 -21.5t36.5 -56.5q7 -24 11 -55t4 -63
q0 -31 -3.5 -60.5t-11.5 -52.5v1q-17 -47 -50 -64t-80 -15q-48 2 -71.5 20.5t-37.5 57.5v-1q-8 23 -11.5 54t-3.5 63q0 31 4 61t12 53q17 47 49.5 64t79.5 15zM166 8l406 688l59 -35l-406 -688zM600 306q-23 0 -39 -7.5t-23 -27.5q-7 -18 -10 -41.5t-3 -49.5t3 -51t10 -43
q5 -17 14.5 -24t31.5 -9q24 0 39.5 7.5t22.5 26.5q8 19 10.5 42.5t2.5 49.5q0 27 -3 52t-10 43q-5 15 -15 22.5t-31 9.5zM210 621q-23 1 -38.5 -6.5t-23.5 -28.5q-8 -18 -10.5 -41.5t-2.5 -48.5q0 -27 2.5 -52.5t9.5 -43.5q5 -15 14.5 -22t31.5 -8q23 -1 39.5 6t23.5 27
q7 18 9.5 41t2.5 49q0 29 -2.5 54.5t-9.5 43.5q-5 14 -14.5 21.5t-31.5 8.5z" />
    <glyph glyph-name="ampersand" unicode="&#x26;" horiz-adv-x="729" 
d="M651 513l-85 -280q-10 -32 -23.5 -59.5t-30.5 -52.5q38 -31 84 -50.5t103 -15.5l4 -68q-73 -5 -130 19.5t-104 62.5q-51 -52 -112 -80t-119 -28q-68 0 -122.5 40t-75.5 123q-3 10 -4 21t-1 22q0 32 10 65.5t29 64.5t46.5 58t61.5 45q-25 36 -41.5 69t-21.5 59
q-3 33 4.5 65t25.5 57.5t47 42t68 18.5q37 1 66.5 -10t50 -31.5t31 -48.5t10.5 -59q0 -53 -32.5 -105.5t-103.5 -86.5q21 -26 43 -52t45 -50q8 -8 16.5 -19.5t16.5 -19.5q12 -14 25 -29t27 -29q25 36 42 82l85 280zM238 29q43 0 89.5 23.5t87.5 65.5q-16 17 -30.5 34
t-28.5 33l-32 37q-26 29 -52.5 59.5t-49.5 62.5q-28 -13 -50 -33t-37.5 -44t-23.5 -49.5t-8 -50.5q0 -15 3 -27q14 -58 50.5 -84.5t81.5 -26.5zM187 535q2 -20 17.5 -48.5t39.5 -61.5q58 24 84 62t26 75q0 17 -6 32t-17 26.5t-27 17.5t-36 5q-22 -2 -38.5 -11.5t-27 -24.5
t-14.5 -33.5t-1 -38.5z" />
    <glyph glyph-name="quotesingle" unicode="'" horiz-adv-x="192" 
d="M130 716v-218h-68v218h68z" />
    <glyph glyph-name="parenleft" unicode="(" horiz-adv-x="305" 
d="M268 726q-72 -117 -107.5 -220t-35.5 -202q0 -100 36 -198.5t108 -206.5l-57 -39q-78 117 -116.5 225t-38.5 219q0 110 38.5 221.5t113.5 235.5z" />
    <glyph glyph-name="parenright" unicode=")" horiz-adv-x="305" 
d="M97 761q76 -125 114 -236.5t38 -221.5q0 -111 -38 -218.5t-116 -224.5l-57 39q72 108 107.5 206t35.5 198q0 99 -35.5 202t-107.5 221z" />
    <glyph glyph-name="asterisk" unicode="*" horiz-adv-x="464" 
d="M76 607l124 -37v139h68v-138l120 39l20 -64l-120 -40l73 -105l-57 -39l-71 104l-80 -108l-55 41l79 106q-31 8 -60.5 17.5t-59.5 17.5z" />
    <glyph glyph-name="plus" unicode="+" horiz-adv-x="572" 
d="M322 582v-192h192v-68h-192v-191h-68v191h-192v68h192v192h68z" />
    <glyph glyph-name="comma" unicode="," horiz-adv-x="214" 
d="M13 -139l77 228l65 -22l-77 -228z" />
    <glyph glyph-name="hyphen" unicode="-" horiz-adv-x="332" 
d="M27 291h278v-68h-278v68z" />
    <glyph glyph-name="period" unicode="." horiz-adv-x="214" 
d="M141 85v-107h-68v107h68z" />
    <glyph glyph-name="slash" unicode="/" horiz-adv-x="354" 
d="M320 746l-221 -878l-66 16l221 878z" />
    <glyph glyph-name="zero" unicode="0" 
d="M314 693q54 -2 94.5 -23t67.5 -55.5t40.5 -79.5t13.5 -96v-166q0 -62 -12 -116t-40.5 -94t-74.5 -62t-112 -20q-62 2 -104 28t-67.5 66.5t-36 92.5t-10.5 106q0 38 1 75.5t1 74.5q1 58 15 108.5t43 87t74 56t107 17.5zM312 625q-44 2 -75.5 -13t-52 -42t-30.5 -65
t-11 -81q0 -37 -1 -74.5t-1 -75.5q0 -40 8.5 -78.5t27.5 -69.5t48 -52t68 -25q44 0 76 18t53 48.5t30.5 71t9.5 86.5v166q0 37 -9.5 70t-28.5 58.5t-47 40.5t-65 17z" />
    <glyph glyph-name="one" unicode="1" 
d="M137 64h129v539l-97 -30l-19 65l184 55v-629h132v-68h-329v68z" />
    <glyph glyph-name="two" unicode="2" 
d="M106 673q48 7 96 13.5t96 6.5q43 0 81 -8t66 -27.5t44 -53t17 -84.5q0 -35 -13 -62.5t-35.5 -52t-52 -46.5t-61.5 -45q-34 -23 -67.5 -48.5t-61 -56t-45 -67t-18.5 -82.5h339v-69h-403q-3 28 -3.5 40t-0.5 22q0 60 20 107t51.5 84.5t71 67.5t78.5 58q26 18 50.5 36t43 36
t29 37.5t10.5 40.5q0 31 -11 51t-30 32t-44.5 16.5t-54.5 4.5q-41 0 -88 -6t-94 -13z" />
    <glyph glyph-name="three" unicode="3" 
d="M130 68q26 -9 63 -14.5t76 -5.5t75 7.5t59 26.5q25 20 37 49.5t12 60.5q0 21 -6 40.5t-16.5 35.5t-26 26.5t-34.5 13.5q-37 5 -75 6t-75 1h-83v68h126q26 2 51.5 4t49.5 7q19 4 34.5 15t26 26.5t16.5 34t6 38.5q0 24 -11 48.5t-33 42.5q-19 14 -49.5 19.5t-64.5 5.5
q-45 0 -87 -5.5t-77 -12.5l-11 67q38 6 84 12.5t91 6.5t85 -8.5t71 -31.5q36 -28 53.5 -66t17.5 -78q0 -45 -20 -86.5t-56 -67.5q39 -25 60 -69t21 -93q0 -45 -18 -88.5t-56 -74.5q-34 -26 -81.5 -37.5t-95.5 -11.5q-45 0 -87.5 6.5t-73.5 17.5z" />
    <glyph glyph-name="four" unicode="4" 
d="M522 177l-88 -1v-181h-68v181h-322v61l325 460h65v-452h88v-68zM131 244q59 0 117 0.5t118 0.5v330z" />
    <glyph glyph-name="five" unicode="5" 
d="M125 63q27 -9 65 -15t80 -6q40 0 78 8t61 26q24 20 36 52t12 65q0 15 -2.5 30.5t-7.5 29.5q-9 29 -27.5 47t-42.5 27.5t-52.5 13t-56.5 3.5q-16 0 -31 -0.5t-31 -1.5q-8 0 -21 -0.5t-26.5 -1t-25 -0.5h-17.5l36 349h340v-68h-277q-3 -29 -6 -54t-5.5 -50t-5.5 -51t-6 -57
q2 0 5 0.5t6 0.5q15 1 32 1.5t33 0.5q37 0 74.5 -5.5t70 -20.5t58.5 -41.5t41 -69.5q6 -20 9.5 -40.5t3.5 -41.5q0 -48 -18 -93.5t-56 -76.5q-33 -27 -81.5 -38t-99.5 -11q-46 0 -90 7t-76 18z" />
    <glyph glyph-name="six" unicode="6" 
d="M482 603l-23 3q-33 6 -70.5 12t-70.5 6q-31 0 -60 -6.5t-52.5 -24t-39.5 -47.5t-20 -77q-1 -5 -1 -22v-38q91 22 161 22q57 0 97 -14.5t66 -39t40 -57t17 -69.5v-39q0 -38 -4.5 -66t-13.5 -49t-21.5 -37t-27.5 -30v1q-27 -27 -69 -39.5t-87 -12.5q-40 0 -78 9.5t-63 27.5
q-22 16 -38 41t-26 55.5t-15 65.5t-6 71v228q7 63 30 104.5t55.5 66t72.5 34.5t83 10q38 0 77.5 -6.5t74.5 -11.5l-1 1l22 -4zM306 363q-32 0 -72 -6t-89 -20v-53.5t1 -30.5q1 -60 13.5 -110t43.5 -72h-1q17 -12 43.5 -18t57.5 -6q33 0 62.5 7.5t45.5 23.5q22 21 34.5 49.5
t12.5 84.5v17t-1 19q-2 48 -36.5 81.5t-114.5 33.5z" />
    <glyph glyph-name="seven" unicode="7" 
d="M100 686l441 1v-58l-284 -648l-63 27l267 611q-91 0 -180.5 -0.5t-180.5 -0.5v68z" />
    <glyph glyph-name="eight" unicode="8" 
d="M527 506q0 -54 -20 -87.5t-52 -52.5q38 -23 61.5 -63t23.5 -103q0 -65 -19 -108t-51 -69t-74.5 -37t-88.5 -11q-45 0 -89 11t-78.5 36t-55.5 66t-21 101q0 68 26 110.5t68 65.5q-35 20 -58 55.5t-23 95.5q0 51 20 85.5t52.5 56t74 30.5t84.5 9t83 -9t70.5 -31t48.5 -59
t18 -92zM472 200q0 37 -13.5 62t-35 40.5t-49 23t-55.5 8.5h-18q-30 -1 -60 -8.5t-54.5 -24t-40 -44t-15.5 -68.5t15 -69t40 -45t56.5 -24.5t64.5 -7.5t62.5 7.5t52.5 25.5t36.5 48.5t13.5 75.5zM459 506q0 35 -12.5 58.5t-33.5 38t-48.5 20.5t-57.5 6t-59 -5.5t-52.5 -19
t-37.5 -35t-14 -53.5q0 -35 14.5 -57t37 -34.5t50.5 -17t55 -5.5h6q27 0 54 4.5t49 16t35.5 31.5t13.5 52z" />
    <glyph glyph-name="nine" unicode="9" 
d="M122 70l23 -4q32 -7 68 -12t73 -5q31 0 60 6.5t52 23.5t38.5 47t20.5 77v59q-47 -11 -86.5 -16t-72.5 -5q-58 0 -98.5 14t-66.5 38t-39 56.5t-16 70.5q-1 11 -1 20.5v18.5q0 37 5 65t14 49t22 37t28 31q26 26 67.5 38t86.5 12q40 0 77.5 -9t63.5 -28h-1q23 -16 39 -41
t26 -56t15 -66t6 -71v-135v-59.5t-1 -31.5v2q-6 -65 -28 -107t-54.5 -66t-73 -33t-83.5 -9q-38 0 -78 5.5t-75 12.5l2 -1l-23 4zM298 309q65 0 159 25v85q0 29 -3.5 57t-10.5 52t-17.5 42.5t-25.5 28.5q-16 12 -42.5 18t-57.5 6q-32 0 -61.5 -7.5t-46.5 -23.5
q-21 -20 -33.5 -48.5t-12.5 -84.5v-36q2 -23 11 -44t27 -36.5t46 -24.5t68 -9z" />
    <glyph glyph-name="colon" unicode=":" horiz-adv-x="218" 
d="M143 492v-112h-68v112h68zM143 99v-112h-68v112h68z" />
    <glyph glyph-name="semicolon" unicode=";" horiz-adv-x="212" 
d="M145 488v-113h-68v113h68zM143 84l-65 -201l-64 21l65 200z" />
    <glyph glyph-name="less" unicode="&#x3c;" 
d="M435 524l-211 -182l228 -203l-46 -52l-286 255l271 234z" />
    <glyph glyph-name="equal" unicode="=" 
d="M108 469h388v-68h-388v68zM108 263h388v-68h-388v68z" />
    <glyph glyph-name="greater" unicode="&#x3e;" 
d="M212 576l271 -234l-286 -255l-46 52l228 203l-211 182z" />
    <glyph glyph-name="question" unicode="?" horiz-adv-x="424" 
d="M44 688q38 6 76 10.5t76 4.5q42 0 78 -7.5t62 -26.5t39.5 -51t11.5 -81q-1 -23 -8.5 -42.5t-18.5 -37t-26 -34.5t-31 -34q-18 -19 -36.5 -40.5t-33 -46.5t-24 -55t-9.5 -66h-68q0 46 11 83.5t28 67.5t39 55t43 48q26 28 45 53t21 53q1 27 -7.5 45t-25 28.5t-40 15
t-50.5 4.5q-31 0 -67 -4t-74 -10zM201 113v-112h-68v112h68z" />
    <glyph glyph-name="at" unicode="@" horiz-adv-x="766" 
d="M502 158q25 4 47 13t40 25t30 41t17 61q3 20 5 41t2 39q0 39 -9.5 77t-36.5 68t-74 48.5t-122 19.5q-47 0 -83.5 -8t-63.5 -21.5t-45.5 -31t-31.5 -35.5q-30 -43 -36 -97l-18 -191q-3 -62 23 -110q11 -21 29.5 -40.5t47 -34.5t68 -24.5t92.5 -9.5q44 0 106 9l11 -68
q-62 -9 -117 -9q-64 0 -112 12.5t-83.5 33t-58.5 47t-38 54.5q-34 65 -36 148q4 46 9 94t9 94v-1q7 72 45 129q16 24 40 47t58 41t80 29t105 11q96 -1 156.5 -25.5t94.5 -64t46.5 -89.5t12.5 -102q0 -23 -2 -46t-5 -43q-10 -70 -38.5 -110t-68 -61t-86.5 -27t-94 -9l-37 -2
q-53 -3 -85.5 11.5t-50.5 37t-24 48.5t-6 46q0 11 1 19.5t1 10.5l16 123q4 36 21 59t41.5 36t53 18t57.5 5q20 0 43.5 -3t43.5 -7q23 -4 46 -9zM416 150h7.5t8.5 1l31 271q-12 2 -26.5 3t-31.5 1t-34.5 -3t-32 -9.5t-25 -18t-13.5 -28.5l-16 -121q-2 -10 -2 -23q0 -11 3 -25
t13 -25.5t28.5 -19t50.5 -5.5z" />
    <glyph glyph-name="A" unicode="A" horiz-adv-x="632" 
d="M33 10l255 690h58l253 -693l-64 -24l-87 238h-264l-87 -235zM317 579q-26 -73 -53 -145l-54 -144h213z" />
    <glyph glyph-name="B" unicode="B" horiz-adv-x="566" 
d="M116 688q32 2 60.5 3.5t54.5 1.5q75 0 126.5 -12.5t81.5 -36.5v1q35 -27 52 -65t17 -79t-15 -78.5t-44 -63.5q42 -28 61 -73t19 -93q0 -57 -25 -108t-71 -75q-33 -17 -72.5 -22t-84.5 -5q-24 0 -51 1t-53 3l-28 2v-1h-68v700h40zM144 321v-265l32 -1q26 -2 51 -3t49 -1
q37 0 69 4.5t56 15.5q26 16 43 50t17 72q0 22 -7 43.5t-20.5 39t-33.5 30t-46 15.5h-210zM231 625q-20 0 -41 -1t-46 -3v-232h212q19 1 35 11.5t26.5 26t16.5 35t6 39.5q0 26 -10 49.5t-31 39.5q-23 17 -63.5 26t-104.5 9z" />
    <glyph glyph-name="C" unicode="C" horiz-adv-x="521" 
d="M482 613q-32 3 -64.5 5t-63.5 2q-32 0 -62 -4t-55.5 -14.5t-45.5 -28t-30 -44.5q-14 -42 -21.5 -93.5t-7.5 -104.5q0 -59 8.5 -112.5t25.5 -93.5q10 -22 29.5 -36t45 -22t55.5 -11t62 -3q31 0 60.5 2t58.5 4l6 -68q-30 -2 -62 -4t-63 -2q-40 0 -78.5 5.5t-72 18.5
t-60.5 34.5t-43 54.5q-19 45 -30 108t-11 125q0 60 8.5 118t25.5 104q15 42 41.5 68t60 41t73.5 20.5t82 5.5q35 0 68.5 -2t65.5 -5z" />
    <glyph glyph-name="D" unicode="D" horiz-adv-x="603" 
d="M549 340q0 -105 -18 -174.5t-53.5 -110t-88 -57t-120.5 -16.5q-36 0 -84 5.5t-106 13.5v674q57 5 103 7.5t80 2.5q73 0 127 -13.5t89.5 -51.5t53 -105t17.5 -175zM481 340q0 86 -13.5 140t-40.5 84.5t-68 41.5t-97 11q-26 0 -53.5 -1t-61.5 -3v-553q34 -5 65 -7.5
t57 -2.5q52 0 91.5 13t66.5 46t40.5 89t13.5 142z" />
    <glyph glyph-name="E" unicode="E" horiz-adv-x="509" 
d="M457 625h-213q-49 0 -79 -34t-29 -97v-116h330v-68h-330v-151q1 -57 30 -85t72 -28h215v-68h-215q-36 0 -66.5 11t-53 33.5t-36 56t-14.5 78.5v336q-2 97 46.5 148.5t129.5 51.5h213v-68z" />
    <glyph glyph-name="F" unicode="F" horiz-adv-x="503" 
d="M458 625h-213q-49 0 -79 -33.5t-29 -96.5v-116h327v-68h-327v-323h-68v507q0 48 12.5 84.5t35.5 62t55.5 38.5t72.5 13h213v-68z" />
    <glyph glyph-name="G" unicode="G" horiz-adv-x="574" 
d="M499 618q-11 1 -23 1t-23 2q-30 3 -61 6t-59 3q-30 0 -58.5 -4.5t-53 -15t-43.5 -29t-30 -45.5q-14 -42 -22 -93t-8 -105q0 -57 8 -110.5t22 -93.5v1q9 -26 27 -43t42 -28t53 -15.5t59 -4.5q51 0 103 11q0 73 0.5 143t0.5 144h68l-1 -342q-47 -11 -90.5 -17.5t-80.5 -6.5
q-40 0 -78 6.5t-70.5 22.5t-57.5 42t-39 64q-16 45 -25 104.5t-9 122.5q0 61 8.5 118.5t25.5 103.5q16 42 41.5 68.5t58.5 42t71 21.5t78 6q34 0 65.5 -3t60.5 -6l43 -3z" />
    <glyph glyph-name="H" unicode="H" horiz-adv-x="641" 
d="M569 687v-702h-68v335h-357v-335h-68v702h68v-299h357v299h68z" />
    <glyph glyph-name="I" unicode="I" horiz-adv-x="217" 
d="M143 687v-702h-68v702h68z" />
    <glyph glyph-name="J" unicode="J" horiz-adv-x="284" 
d="M0 36h16q21 0 41 1.5t35.5 9t24.5 23.5t9 45v556h69v-556q0 -55 -15 -84.5t-40 -43.5t-57.5 -16.5t-66.5 -2.5h-16v68z" />
    <glyph glyph-name="K" unicode="K" horiz-adv-x="531" 
d="M447 -29l-299 332v-317h-68v701h68v-320l287 307l50 -46l-274 -292l288 -319z" />
    <glyph glyph-name="L" unicode="L" horiz-adv-x="486" 
d="M451 -14h-213q-33 0 -62.5 6t-52.5 23t-36.5 48.5t-13.5 81.5v552h68v-552q0 -29 8 -47t21.5 -27.5t31 -13t36.5 -3.5h213v-68z" />
    <glyph glyph-name="M" unicode="M" horiz-adv-x="726" 
d="M583 -5l-1 562l-193 -298h-51l-193 299q0 -142 1 -281.5t1 -281.5h-68l-2 700h61l225 -351l227 351h60l1 -700h-68z" />
    <glyph glyph-name="N" unicode="N" horiz-adv-x="647" 
d="M570 696v-705h-71l-356 567q0 -141 0.5 -281.5t0.5 -281.5h-69v704h59l367 -585q0 146 0.5 291t0.5 291h68z" />
    <glyph glyph-name="O" unicode="O" horiz-adv-x="660" 
d="M348 696q75 -3 127.5 -35t78.5 -98q17 -45 25.5 -103.5t8.5 -121.5q0 -60 -8.5 -118t-27.5 -106l1 1q-15 -40 -41 -66.5t-58 -42.5t-68.5 -22.5t-72.5 -5.5q-76 3 -128.5 35t-78.5 98q-17 45 -25.5 103.5t-8.5 121.5q0 60 8.5 118t27.5 106l-1 -1q15 40 41 66.5
t58.5 42.5t69 22.5t72.5 5.5zM347 628q-27 1 -54 -3.5t-51 -15.5t-42.5 -29.5t-28.5 -45.5q-16 -40 -23.5 -91.5t-7.5 -106.5q0 -56 8.5 -108.5t22.5 -92.5q17 -42 53.5 -64.5t89.5 -24.5q27 -1 54 3.5t50 15.5t41.5 29t28.5 45q17 41 24.5 93t7.5 106q0 56 -8.5 108.5
t-22.5 92.5q-17 42 -53.5 64.5t-88.5 24.5z" />
    <glyph glyph-name="P" unicode="P" horiz-adv-x="562" 
d="M75 -5v689h38q17 1 33 2t33 3q29 2 57 4t54 2q36 0 69.5 -6t62.5 -20q22 -13 39.5 -33.5t30 -45.5t19.5 -53.5t7 -57.5q0 -53 -23.5 -102t-68.5 -78q-35 -20 -81 -27.5t-91 -7.5q-22 0 -44 1t-43 2q-7 0 -13 0.5t-11 0.5v-273h-68zM143 617v-281q7 0 13.5 -0.5t14.5 -0.5
q20 -1 41.5 -2t41.5 -1q38 0 74.5 5t62.5 21q30 18 44.5 51.5t14.5 69.5q0 42 -16 78t-45 51q-20 11 -45 15t-54 4q-26 0 -51.5 -2t-53.5 -4z" />
    <glyph glyph-name="Q" unicode="Q" horiz-adv-x="634" 
d="M533 -62l-72 79q-52 -35 -132 -38q-36 -2 -72 5t-68 23.5t-58 43t-41 65.5q-15 44 -23.5 98.5t-8.5 110.5q0 65 10 127.5t28 110.5q25 65 77.5 98t127.5 35h1q36 1 72 -5.5t68 -23t58 -43.5t41 -66q15 -43 23.5 -98.5t8.5 -112.5q0 -65 -10 -127t-28 -110
q-5 -13 -11 -24.5t-14 -21.5l73 -80zM304 628q-54 -2 -91 -24t-54 -65q-16 -41 -24.5 -97.5t-8.5 -116.5q0 -51 7 -99t21 -86q10 -27 28.5 -45.5t41.5 -29.5t49.5 -15t53.5 -3q51 2 87 21l-108 119l50 46l107 -118q6 11 10 21l-1 -1q16 42 24.5 97.5t8.5 114.5
q0 52 -7 100.5t-22 86.5q-10 28 -28 46.5t-41.5 29.5t-50 15t-53.5 3h1z" />
    <glyph glyph-name="R" unicode="R" horiz-adv-x="581" 
d="M76 -18v705h32l50 3q26 2 52 3t49 1q47 0 88 -6.5t75 -23.5q23 -12 41 -31.5t30.5 -44t19 -52.5t6.5 -56q0 -25 -6 -50t-18 -48t-29 -43t-39 -33q-27 -13 -59 -21l171 -272l-57 -37l-186 297q-11 -1 -21.5 -1h-21.5q-21 0 -43 1t-42 2q-7 0 -13 0.5t-11 0.5v-294h-68z
M144 621v-277q7 0 13.5 -0.5t14.5 -0.5q19 -1 40 -1.5t41 -0.5q40 0 77 4.5t64 19.5q29 17 43 48.5t14 66.5q0 18 -4.5 36.5t-13 35t-19.5 30.5t-23 22q-26 12 -59.5 17t-72.5 5q-23 0 -47 -1t-50 -3z" />
    <glyph glyph-name="S" unicode="S" horiz-adv-x="550" 
d="M457 614q-41 6 -81.5 10.5t-76.5 4.5q-34 0 -64 -5t-53 -17t-37 -33t-15 -53q-1 -26 11.5 -46.5t34 -38t49.5 -32t58 -28.5q29 -14 57 -29t52.5 -32t44 -38t30.5 -48q19 -46 19 -84q0 -36 -14 -67t-44 -54t-76.5 -36t-110.5 -13q-33 0 -73.5 4.5t-86.5 13.5l13 66
q42 -8 78.5 -12t68.5 -4q93 0 135 29.5t42 72.5q0 14 -3.5 28.5t-9.5 30.5q-8 17 -23.5 32.5t-36 29t-44 25.5t-47.5 24q-35 17 -69 37.5t-61 46t-44 57t-18 69.5q3 49 23 82t52 53t73.5 28.5t88.5 8.5q43 0 85.5 -4.5t83.5 -10.5z" />
    <glyph glyph-name="T" unicode="T" horiz-adv-x="590" 
d="M52 680h486v-68h-211v-628h-68v628h-207v68z" />
    <glyph glyph-name="U" unicode="U" horiz-adv-x="610" 
d="M538 698v-488q3 -55 -15.5 -96.5t-51 -69t-75 -41.5t-87.5 -14q-44 0 -86 13.5t-75 40.5t-53 67.5t-20 94.5v496h68v-496q0 -37 14 -64.5t37.5 -46t53 -28t61.5 -9.5q30 0 58.5 10.5t51 29.5t36.5 46.5t15 62.5q0 4 -0.5 12.5t-0.5 27.5v51.5v86v130v184.5h69z" />
    <glyph glyph-name="V" unicode="V" horiz-adv-x="642" 
d="M101 700l220 -589q55 149 110 296t109 296l64 -24l-253 -687h-59l-255 684z" />
    <glyph glyph-name="W" unicode="W" horiz-adv-x="786" 
d="M746 685l-135 -688h-58l-161 398l-160 -398h-59l-130 690l66 12l106 -563l148 367h59l147 -367l111 562z" />
    <glyph glyph-name="X" unicode="X" horiz-adv-x="583" 
d="M537 654l-207 -310l214 -321l-57 -36l-197 296l-197 -296l-57 36l213 321l-206 310l57 36l190 -285l190 285z" />
    <glyph glyph-name="Y" unicode="Y" horiz-adv-x="538" 
d="M99 692l174 -329l172 331l61 -32l-199 -383v-284h-68v286l-201 380z" />
    <glyph glyph-name="Z" unicode="Z" horiz-adv-x="569" 
d="M524 -9h-475v66l352 556h-349v68h436v-59l-358 -563h394v-68z" />
    <glyph glyph-name="bracketleft" unicode="[" horiz-adv-x="310" 
d="M277 690h-121v-751h121v-68h-189v887h189v-68z" />
    <glyph glyph-name="backslash" unicode="\" horiz-adv-x="354" 
d="M99 762l221 -878l-66 -16l-221 878z" />
    <glyph glyph-name="bracketright" unicode="]" horiz-adv-x="309" 
d="M34 758h189v-887h-189v68h121v751h-121v68z" />
    <glyph glyph-name="asciicircum" unicode="^" horiz-adv-x="464" 
d="M63 577l149 148h49l142 -150l-49 -47l-120 124l-123 -123z" />
    <glyph glyph-name="underscore" unicode="_" horiz-adv-x="293" 
d="M-22 -79h340v-68h-340v68z" />
    <glyph glyph-name="grave" unicode="`" horiz-adv-x="278" 
d="M92 769l112 -161l-55 -38l-112 161z" />
    <glyph glyph-name="a" unicode="a" horiz-adv-x="469" 
d="M61 496q39 7 78.5 11.5t74.5 4.5q40 0 75 -7t61 -24.5t40.5 -46.5t13.5 -73q0 -94 -0.5 -188t-0.5 -189h-68v21q-32 -14 -71.5 -23.5t-75.5 -9.5q-26 0 -50 6t-44 21q-34 26 -49 60t-15 69q0 28 9 54.5t24.5 49t37 38.5t46.5 22q38 8 74 10.5t66 2.5h24.5t24.5 -1v57
q0 24 -9.5 40t-26 25.5t-39 13.5t-47.5 4q-35 0 -71 -4.5t-71 -9.5zM188 40q38 0 79 12.5t68 27.5v156q-11 0 -22.5 0.5t-25.5 0.5q-29 0 -60.5 -2t-64.5 -10q-28 -6 -46 -34.5t-18 -62.5q0 -20 9 -40.5t27 -35.5q9 -7 23 -9.5t31 -2.5z" />
    <glyph glyph-name="b" unicode="b" horiz-adv-x="504" 
d="M139 685v-178q7 1 14 1.5t15 2.5q20 2 41 4t46 2q34 0 64.5 -7t56.5 -26q22 -17 38.5 -42.5t27 -56.5t15.5 -66t5 -70t-5.5 -68.5t-15 -63.5t-23.5 -54t-31 -39q-32 -23 -71 -32.5t-81 -9.5q-60 0 -124 11h-40v692h68zM175 443q-10 -2 -18.5 -3t-17.5 -2v-381
q23 -3 47.5 -5t48.5 -2q34 0 62.5 5.5t49.5 21.5q11 9 20 26t15 40t9 50t3 56q0 28 -3.5 55.5t-10.5 51t-18 42.5t-26 31q-16 11 -37 15.5t-44 4.5q-17 0 -38 -2z" />
    <glyph glyph-name="c" unicode="c" horiz-adv-x="442" 
d="M404 -14q-29 -8 -61 -12t-66 -4q-42 0 -81.5 10t-69.5 34q-17 14 -30 38t-22 54t-14 64.5t-5 69.5t5 69.5t15 65t25 56t35 42.5q29 20 64.5 29.5t70.5 9.5t70 -5.5t64 -12.5l-15 -66q-26 6 -57 11t-62 5q-26 0 -50.5 -5.5t-41.5 -19.5q-29 -22 -42 -72t-13 -107
q0 -29 3 -56.5t9 -51t14 -40.5t19 -26q19 -16 48 -22t61 -6q29 0 56.5 4t53.5 10z" />
    <glyph glyph-name="d" unicode="d" horiz-adv-x="507" 
d="M435 685v-692h-40q-32 -5 -63.5 -8t-60.5 -3q-42 0 -81 9.5t-71 32.5q-17 15 -31 39t-24 54t-15 63.5t-5 68.5t5 70t15.5 66t27 56.5t38.5 42.5q26 19 56.5 26t64.5 7q25 0 46 -2t41 -4q8 -2 15 -2.5t14 -1.5v178h68zM271 50q24 0 48.5 2t47.5 5v381l-18 2t-18 3l-42 4
t-38 2q-23 0 -44 -4.5t-37 -15.5q-15 -12 -26 -31t-18 -42.5t-10.5 -51t-3.5 -55.5q0 -29 3 -56t9 -50t15 -40t20 -26q21 -16 49.5 -21.5t62.5 -5.5z" />
    <glyph glyph-name="e" unicode="e" horiz-adv-x="522" 
d="M452 -11l-22 -4q-35 -5 -72.5 -11t-74.5 -6q-47 0 -90 11t-76 41.5t-52 83.5t-17 137q1 35 6.5 69.5t16 65.5t26.5 56t37 42q26 17 61.5 27t71.5 10q38 0 75 -10.5t63 -36.5q34 -34 51 -99.5t14 -153.5h-354q2 -53 17 -87t38 -53.5t52 -27t60 -7.5q35 0 70 5t65 10
q8 2 14.5 3.5t10.5 2.5zM172 418q-24 -17 -36.5 -54t-17.5 -84h286q-1 48 -13 81.5t-34 54.5v-1q-16 15 -40 21.5t-50 6.5q-28 0 -53 -6.5t-42 -18.5z" />
    <glyph glyph-name="f" unicode="f" horiz-adv-x="381" 
d="M39 504h113v55q0 47 11.5 76t31.5 45.5t46 22t56 5.5h27t26 -2l-8 -68q-12 1 -23.5 1.5t-21.5 0.5q-16 0 -30 -3t-24.5 -12t-16.5 -25t-6 -41v-55h125v-68h-125v-453h-68v453h-113v68z" />
    <glyph glyph-name="g" unicode="g" horiz-adv-x="529" 
d="M466 319q-3 -44 -21 -73t-46 -47t-62 -25.5t-70 -7.5q-30 0 -59.5 5t-54.5 13q-12 -6 -19.5 -14t-7.5 -16q0 -13 24.5 -27.5t78.5 -25.5q42 -8 77.5 -17.5t60.5 -19.5q56 -23 82 -58.5t26 -73.5q0 -27 -12 -52.5t-34.5 -45.5t-54 -33.5t-70.5 -15.5h1q-8 -1 -16.5 -1
h-16.5q-60 0 -103 14t-70.5 37.5t-40.5 53t-13 61.5q0 35 15 68.5t43 59.5q-24 17 -34.5 36.5t-10.5 39.5q0 19 9 36.5t24 31.5q-19 21 -28.5 49.5t-9.5 58.5q0 45 20.5 83.5t62.5 55.5q26 10 55.5 16.5t61.5 8.5v1l230 1v-68h-42q29 -42 25 -109zM398 325q2 29 -7.5 48.5
t-27.5 31.5t-41 17t-48 5q-29 0 -59 -6t-53 -14q-19 -10 -30 -31.5t-11 -45.5q0 -25 9.5 -47t29.5 -30q21 -8 49 -13.5t58 -5.5q23 0 46 4.5t41.5 15t30 28t13.5 43.5zM216 35q-12 2 -22.5 4.5t-20.5 5.5q-29 -17 -44.5 -42.5t-15.5 -52.5q0 -18 9 -36t28.5 -31.5t49.5 -22
t72 -8.5h13.5t14.5 1q48 4 77.5 27t29.5 52q0 19 -15.5 37t-50.5 32q-23 9 -53.5 17.5t-71.5 16.5z" />
    <glyph glyph-name="h" unicode="h" horiz-adv-x="531" 
d="M392 -4v317q0 36 -10.5 59.5t-28.5 37t-41 18.5t-47 5q-35 0 -67.5 -5.5t-58.5 -10.5l-4 -1v-429h-68v697h68v-199q28 5 61.5 11t68.5 6q37 0 72.5 -8t62.5 -29t43.5 -58t16.5 -94v-317h-68z" />
    <glyph glyph-name="i" unicode="i" horiz-adv-x="231" 
d="M149 498v-511h-68v511h68zM149 693v-112h-68v112h68z" />
    <glyph glyph-name="j" unicode="j" horiz-adv-x="238" 
d="M-39 -155h18q20 0 39 1t33.5 8t23 22.5t8.5 43.5v562h68v-562q0 -54 -14.5 -83.5t-38.5 -43t-55 -15.5t-64 -2h-18v69zM149 685v-112h-68v112h68z" />
    <glyph glyph-name="k" unicode="k" horiz-adv-x="481" 
d="M400 -31l-246 239v-221h-68v703h68v-385l236 219l46 -50l-233 -216l245 -239z" />
    <glyph glyph-name="l" unicode="l" horiz-adv-x="244" 
d="M156 691v-702h-68v702h68z" />
    <glyph glyph-name="m" unicode="m" horiz-adv-x="762" 
d="M346 -12v353q0 56 -18.5 77t-44.5 21q-18 0 -37 -5t-37.5 -12t-35.5 -15t-29 -14v-405h-68v513h68v-32q29 14 66 26t73 12q30 0 56 -10t45 -36q32 15 77 31t89 16q28 0 53 -8t43.5 -27t29.5 -51t11 -81v-353h-68v353q0 57 -20 78t-49 21q-35 0 -74 -14t-67 -28
q5 -28 5 -57v-353h-68z" />
    <glyph glyph-name="n" unicode="n" horiz-adv-x="547" 
d="M144 501v-36q18 7 39 14.5t43.5 13.5t46 10t46.5 4q31 0 58 -7.5t47.5 -26.5t32.5 -51t12 -81v-353h-68v353q0 57 -24 77.5t-58 20.5q-22 0 -46 -5t-47 -12.5t-44 -15.5t-37 -15l-1 -1v-402h-68v513h68z" />
    <glyph glyph-name="o" unicode="o" horiz-adv-x="545" 
d="M286 508q62 -2 105 -27t65 -75q14 -34 21.5 -77.5t7.5 -90.5q0 -45 -7.5 -87.5t-21.5 -76.5q-13 -30 -34.5 -50.5t-48.5 -32.5t-57 -16.5t-60 -4.5q-63 3 -106.5 27.5t-64.5 73.5q-14 34 -21 78t-7 90q0 45 7 87.5t21 77.5q13 30 35 50t48.5 32t57 17t60.5 5zM284 440
q-43 1 -81.5 -12.5t-54.5 -50.5v1q-12 -28 -17.5 -64t-5.5 -75q0 -40 6 -77.5t17 -64.5v1q12 -29 40 -43.5t70 -16.5q20 0 40.5 3.5t38.5 11.5t32.5 20t23.5 29q11 27 17.5 63.5t6.5 72.5q0 40 -6.5 77t-17.5 66v-1q-12 29 -40 44t-69 16z" />
    <glyph glyph-name="p" unicode="p" horiz-adv-x="509" 
d="M75 -204v691h34q33 5 66 8.5t64 3.5q42 0 81 -9.5t71 -32.5q17 -14 31 -37.5t23.5 -53.5t15 -64.5t5.5 -69.5t-5 -70t-15.5 -66t-27 -57t-38.5 -42q-26 -19 -56.5 -26t-64.5 -7q-25 0 -46 2t-41 4q-8 2 -15 2.5t-14 1.5v-178h-68zM239 431q-24 0 -48.5 -2t-47.5 -6v-381
l36 -4l42 -4t38 -2q23 0 44 4.5t37 15.5q15 12 26 31t18 42.5t10.5 51t3.5 55.5t-3.5 55.5t-9.5 50.5t-15 40t-20 26q-21 16 -49.5 21.5t-61.5 5.5z" />
    <glyph glyph-name="q" unicode="q" horiz-adv-x="509" 
d="M436 486v-690h-68v178q-7 -1 -14 -1.5t-15 -2.5q-20 -2 -41 -4t-46 -2q-34 0 -64.5 7t-56.5 26q-22 16 -38.5 42t-27 57t-15.5 66t-5 70t5 69.5t15 64.5t24 53.5t31 37.5q32 23 71 32.5t81 9.5q32 0 66.5 -3.5t68.5 -9.5h29zM368 42v381q-23 4 -47 6t-49 2
q-33 0 -61.5 -5.5t-49.5 -21.5q-11 -9 -20 -26t-15 -40t-9.5 -50.5t-3.5 -55.5t3.5 -55.5t10.5 -51t18 -42.5t26 -31q16 -11 37 -15.5t44 -4.5q17 0 38 2l42 4z" />
    <glyph glyph-name="r" unicode="r" horiz-adv-x="342" 
d="M80 -15v513h68v-40q75 45 163 48l2 -68q-91 -3 -165 -64v-389h-68z" />
    <glyph glyph-name="s" unicode="s" horiz-adv-x="466" 
d="M391 428l-31 2q-37 5 -70 7.5t-59 2.5q-43 0 -69.5 -12t-28.5 -49q-1 -16 8.5 -30t25.5 -27t36.5 -24.5t42.5 -22.5q30 -15 59.5 -32t52.5 -38t36.5 -48t11.5 -63q-2 -26 -11.5 -48.5t-31.5 -39.5t-57 -27t-87 -10q-64 0 -162 19l13 66q89 -16 149 -16q33 0 55.5 4.5
t36.5 12.5t20 19t7 23q1 20 -9.5 36t-28 30t-40 26.5t-45.5 24.5q-30 16 -57.5 32t-49 35.5t-33.5 44t-10 57.5q2 37 14.5 61.5t34.5 39t51.5 20t65.5 5.5q30 0 66.5 -3.5t69.5 -7.5l30 -2z" />
    <glyph glyph-name="t" unicode="t" horiz-adv-x="385" 
d="M38 507h113v102h68v-102h124v-68h-124v-338q0 -26 5.5 -41.5t16 -24.5t24.5 -12t30 -3q10 0 22 0.5t24 1.5l7 -68q-12 -1 -25.5 -1.5t-27.5 -0.5q-30 0 -56.5 5.5t-46 22t-31 45.5t-10.5 76v338h-113v68z" />
    <glyph glyph-name="u" unicode="u" horiz-adv-x="543" 
d="M401 -18v36q-36 -14 -83 -28t-92 -14q-31 0 -58 7.5t-47.5 26.5t-32.5 51t-12 81v353h68v-353q0 -57 24 -77.5t58 -20.5q22 0 46.5 5t47.5 12t44 15t36 15h1v404h68v-513h-68z" />
    <glyph glyph-name="v" unicode="v" horiz-adv-x="495" 
d="M96 504l150 -403l150 405l64 -24l-185 -504h-56l-187 502z" />
    <glyph glyph-name="w" unicode="w" horiz-adv-x="729" 
d="M696 486l-129 -508h-56l-151 367l-148 -367h-58l-123 510l66 16l95 -395l140 345h58l140 -344l100 392z" />
    <glyph glyph-name="x" unicode="x" horiz-adv-x="507" 
d="M465 467l-168 -222l174 -231l-55 -41l-162 215l-161 -215l-55 41l174 231l-167 222l55 41l155 -206l155 206z" />
    <glyph glyph-name="y" unicode="y" horiz-adv-x="483" 
d="M104 499l155 -406l122 403l64 -20l-169 -558q-12 -38 -29.5 -62.5t-38 -38.5t-44 -20t-48.5 -6q-21 0 -35.5 1.5t-31.5 2.5l5 68q17 -1 34 -2.5t28 -1.5q30 0 55 15t41 64l14 48l-186 489z" />
    <glyph glyph-name="z" unicode="z" horiz-adv-x="466" 
d="M432 -23h-393v61l279 398h-270v68h360l1 -55l-283 -404h306v-68z" />
    <glyph glyph-name="braceleft" unicode="{" horiz-adv-x="309" 
d="M271 691h-15q-26 0 -45.5 -1t-32.5 -7.5t-20 -22t-7 -43.5v-163q0 -47 -13 -77.5t-41 -53.5q28 -23 41 -56.5t13 -83.5v-165q0 -18 3 -32.5t13 -25.5t28.5 -17t50.5 -6h14t15 1l5 -68q-8 -1 -17 -1h-17q-54 0 -86.5 11t-49.5 31t-22 47.5t-5 59.5v165q0 41 -16.5 67
t-51.5 44v59q35 19 51.5 41.5t16.5 59.5v163q0 54 11 83t33 42.5t54.5 15t74.5 1.5h15v-68z" />
    <glyph glyph-name="bar" unicode="|" horiz-adv-x="248" 
d="M158 754v-878h-68v878h68z" />
    <glyph glyph-name="braceright" unicode="}" horiz-adv-x="309" 
d="M34 759h15q42 0 74.5 -1.5t54.5 -15t33 -42.5t11 -83v-163q0 -37 16.5 -59.5t51.5 -41.5v-59q-35 -18 -51.5 -44t-16.5 -67v-165q0 -32 -5 -59.5t-22 -47.5t-49.5 -31t-86.5 -11h-17.5t-16.5 1l5 68q8 -1 14.5 -1h14.5q31 0 50 6t29 17t13 25.5t3 32.5v165q0 50 13 83.5
t40 56.5q-27 23 -40 53.5t-13 77.5v163q0 28 -7 43.5t-20 22t-33 7.5t-45 1h-15v68z" />
    <glyph glyph-name="asciitilde" unicode="~" horiz-adv-x="503" 
d="M43 325q-4 71 27 115t84 44q43 0 87 -35l75 -59q7 -5 18.5 -10.5t24.5 -5.5q7 0 14 4.5t11.5 15t7 29t0.5 46.5l68 3q3 -48 -4.5 -80t-22 -51t-34 -27t-40.5 -8q-23 0 -47 10t-39 21l-74 59q-26 20 -45 20q-21 0 -33 -24.5t-10 -62.5z" />
    <glyph glyph-name="quotedbl" unicode="&#x22;" horiz-adv-x="336" 
d="M139 716v-218h-68v218h68zM266 716v-218h-68v218h68z" />
    <glyph glyph-name="exclam" unicode="!" horiz-adv-x="216" 
d="M74 180v507h68v-507h-68zM74 1v111h68v-111h-68z" />
  </font>
</defs>
</svg>
