<?xml version="1.0" standalone="no"?>
<!DOCTYPE svg PUBLIC "-//W3C//DTD SVG 1.1//EN" "http://www.w3.org/Graphics/SVG/1.1/DTD/svg11.dtd" >
<svg>
<metadata>
Created by FontForge 20120731 at Sat Mar 23 19:26:42 2019
 By www-data
Copyright(c) Shanghai Yiqi Information Technology Co.,Ltd
</metadata>
<defs>
<font id="iekiexiqiyangyangtijiacuban" horiz-adv-x="152" >
  <font-face 
    font-family="iekie xiqiyangyangtijiacuban"
    font-weight="400"
    font-stretch="normal"
    units-per-em="256"
    panose-1="2 1 6 1 3 1 1 1 1 1"
    ascent="204"
    descent="-52"
    x-height="122"
    cap-height="171"
    bbox="5 -63 201 182"
    underline-thickness="12"
    underline-position="-42"
    unicode-range="U+0030-007A"
  />
<missing-glyph horiz-adv-x="230" 
d="M21 153q19 17 34 16q17 0 34 -17q16 -17 16 -42v-57q0 -26 -16 -43q-16 -16 -34 -16q-15 -1 -34 16q-16 17 -16 43v57q0 24 16 43zM76 23q11 11 12 30v57q-2 19 -13 32q-9 10 -20 10q-13 -2 -21 -10q-12 -13 -12 -32v-57q0 -19 13 -32q9 -9 20 -10q9 2 21 12z" />
    <glyph glyph-name=".notdef" horiz-adv-x="230" 
d="M21 153q19 17 34 16q17 0 34 -17q16 -17 16 -42v-57q0 -26 -16 -43q-16 -16 -34 -16q-15 -1 -34 16q-16 17 -16 43v57q0 24 16 43zM76 23q11 11 12 30v57q-2 19 -13 32q-9 10 -20 10q-13 -2 -21 -10q-12 -13 -12 -32v-57q0 -19 13 -32q9 -9 20 -10q9 2 21 12z" />
    <glyph glyph-name="zero" unicode="0" horiz-adv-x="110" 
d="M21 153q19 17 34 16q17 0 34 -17q16 -17 16 -42v-57q0 -26 -16 -43q-16 -16 -34 -16q-15 -1 -34 16q-16 17 -16 43v57q0 24 16 43zM76 23q11 11 12 30v57q-2 19 -13 32q-9 10 -20 10q-13 -2 -21 -10q-12 -13 -12 -32v-57q0 -19 13 -32q9 -9 20 -10q9 2 21 12z" />
    <glyph glyph-name="one" unicode="1" horiz-adv-x="54" 
d="M5 160q0 9 8 9h9q12 0 19 -7q8 -8 8 -17v-142q0 -9 -9 -9t-9 9v142q0 3 -3 4q-1 3 -6 3h-9q-8 0 -8 8z" />
    <glyph glyph-name="two" unicode="2" horiz-adv-x="110" 
d="M63 47q-8 -8 -10 -9l-28 -24l-2 -1l3 -2h66q11 0 11 -9q0 -8 -11 -8h-66q-5 0 -13 5q-4 1 -7 10q0 12 9 19q29 26 36 30q20 19 25 25q9 12 11 29q0 17 -9 30q-10 10 -20 10h-3q-11 0 -21 -10q-11 -14 -11 -30q0 -11 -8 -11q-10 0 -10 11q0 25 16 41t34 16q15 1 34 -13
q16 -17 16 -44q0 -23 -15 -40q-6 -7 -27 -25z" />
    <glyph glyph-name="three" unicode="3" horiz-adv-x="109" 
d="M95 157q3 -12 -7 -19l-37 -32q19 -1 36 -17q17 -19 17 -38q0 -22 -18 -40q-20 -17 -49 -17h-22q-10 0 -10 9q0 8 10 8h22q24 2 37 13q12 11 12 27q0 13 -12 26q-13 13 -37 12h-10q-6 0 -7 4q-3 4 2 11l54 47v1h-2h-58q-9 0 -9 9q0 8 9 8h58q17 0 21 -12z" />
    <glyph glyph-name="four" unicode="4" horiz-adv-x="122" 
d="M95 50h13q9 0 9 -9t-9 -9h-13v-29q0 -9 -8 -9q-9 0 -9 9v29h-52q-12 0 -17 11q-4 7 1 17l53 101q6 8 14 8q4 0 6 -1q12 -4 12 -17v-101zM27 52q0 -2 1 -3h50v101v2v-1h-1l-47 -90z" />
    <glyph glyph-name="five" unicode="5" horiz-adv-x="99" 
d="M27 105h13q23 0 41 -19q13 -14 13 -36q0 -23 -15 -40q-16 -16 -39 -16h-26q-9 0 -9 10q0 7 9 7h26q15 -1 26 10q9 9 11 29q-1 16 -10 26q-11 12 -27 12h-22q-8 0 -8 8v65q0 8 8 8h53q9 0 9 -8t-9 -8h-44v-48z" />
    <glyph glyph-name="six" unicode="6" horiz-adv-x="120" 
d="M49 107q6 2 13 2q17 2 35 -15q18 -18 18 -39q0 -26 -16 -45q-21 -17 -37 -16q-21 -1 -40 15q-17 21 -16 46q0 22 15 43q16 23 20 27l27 41q3 6 12 1q7 -6 2 -11zM62 11q8 -1 24 10q11 14 11 32q1 16 -12 29q-10 10 -21 10q-22 2 -33 -12q-6 -8 -8 -25q0 -22 11 -33
t24 -11h4z" />
    <glyph glyph-name="seven" unicode="7" horiz-adv-x="113" 
d="M5 160q0 9 9 9h65q14 0 22 -11q4 -5 4 -12t-4 -12l-67 -135q0 -5 -12 -5h3q-7 4 -7 10v2l68 135q1 4 0 8q-3 3 -7 3h-65q-9 0 -9 8z" />
    <glyph glyph-name="eight" unicode="8" horiz-adv-x="121" 
d="M90 98q4 -2 14 -15q12 -15 12 -35q0 -22 -16 -39q-17 -16 -39 -16t-39 16q-17 19 -17 39t12 35q12 14 15 15q4 -2 -4 9t-8 22q0 16 14 30q11 10 27 10q12 0 26 -11q14 -14 14 -29q0 -12 -7 -22q-6 -6 -6 -8q0 -1 1 -1h1zM45 145q-7 -4 -7 -16q0 -10 7 -16q7 -7 16 -7
q8 0 15 7q7 6 7 16q0 12 -7 16q-8 8 -15 8q-8 0 -16 -8zM35 22q11 -12 26 -12q14 0 26 12q12 11 12 26q0 18 -12 28q-12 12 -26 12q-15 0 -26 -12q-13 -10 -13 -28q0 -16 13 -26z" />
    <glyph glyph-name="nine" unicode="9" horiz-adv-x="119" 
d="M35 140q-12 -13 -12 -29q0 -18 12 -29q11 -9 22 -9q15 -1 26 10q13 10 13 28q0 17 -13 30q-12 10 -23 10h-3q-8 0 -22 -11zM22 153q16 16 35 16q23 0 40 -17q17 -19 17 -41q0 -18 -11 -35l-2 -3l-56 -78q-13 -6 -15 9l38 51h-12q-18 2 -32 13q-19 16 -19 43q0 22 17 42z
" />
    <glyph glyph-name="A" unicode="A" horiz-adv-x="159" 
d="M134 81v15q0 24 -17 39q-15 17 -37 17q-24 0 -37 -16q-17 -17 -17 -40v-15h108zM28 147q22 22 52 22q29 0 51 -22q20 -23 20 -51v-93q0 -9 -8 -9q-9 0 -9 9v61h-108v-61q0 -9 -8 -9q-10 0 -10 9v93q0 28 20 51z" />
    <glyph glyph-name="B" unicode="B" horiz-adv-x="140" 
d="M25 10h56q16 0 23 10q10 10 10 26q0 15 -10 25q-7 10 -23 10h-56v-71zM31 145q-6 -7 -6 -20v-27h56q13 0 19 8q8 8 8 19q0 13 -7 20q-6 8 -20 8h-30q-12 0 -20 -8zM112 88q4 -1 10 -12q10 -13 10 -30q0 -20 -14 -36q-16 -16 -37 -16h-64q-9 0 -9 9v122q0 19 10 30
q14 15 33 15h30q20 0 33 -15q11 -13 11 -30q0 -16 -11 -29q-4 -4 -4 -7q0 -1 1 -1h1z" />
    <glyph glyph-name="C" unicode="C" 
d="M128 133q-18 21 -43 21t-42 -20q-18 -22 -18 -51q0 -31 18 -52q17 -20 42 -20t43 20q4 4 7 4q4 0 5 -3q4 -7 0 -11q-22 -27 -55 -27q-32 0 -54 27q-23 26 -23 62q0 35 23 61q22 27 54 27q33 0 55 -27q4 -6 1 -11q-4 -4 -7 -4q-2 0 -6 4z" />
    <glyph glyph-name="D" unicode="D" horiz-adv-x="146" 
d="M17 -6q-9 0 -9 9v122q0 16 11 29q12 15 32 15h1q35 0 60 -27q26 -26 26 -60t-26 -62q-26 -26 -60 -26h-35zM31 145q-6 -9 -6 -20v-114h27q28 0 47 21q21 20 21 50q0 29 -21 50q-20 20 -47 20h-1q-13 0 -20 -7z" />
    <glyph glyph-name="E" unicode="E" horiz-adv-x="134" 
d="M30 12q-22 19 -22 45v50q0 25 22 44q21 18 51 18h36q9 0 9 -9q0 -8 -9 -8h-36q-23 0 -39 -14q-15 -12 -16 -31v-17h80q9 0 9 -8t-9 -8h-80v-17q0 -20 16 -33t39 -13h36q9 0 9 -8q0 -9 -9 -9h-36q-30 0 -51 18z" />
    <glyph glyph-name="F" unicode="F" horiz-adv-x="132" 
d="M31 152q22 19 54 19h30q9 0 9 -9q0 -8 -9 -8h-30q-23 0 -42 -14q-16 -12 -16 -32v-20h76q10 0 10 -9q0 -8 -10 -8h-76v-68q0 -9 -9 -9q-10 0 -10 9v105q0 24 23 44z" />
    <glyph glyph-name="G" unicode="G" horiz-adv-x="157" 
d="M71 81q0 8 9 8h60q9 0 9 -8q0 -38 -20 -64q-19 -25 -49 -25t-51 25q-21 29 -21 64q0 38 21 63q21 26 51 26q29 0 48 -24q4 -4 1 -11q-4 -4 -7 -4q-2 0 -6 4q-15 18 -36 18q-23 0 -39 -19q-17 -23 -17 -53t17 -52q17 -21 39 -21q20 0 35 20q16 19 16 45h-51q-9 0 -9 8z
" />
    <glyph glyph-name="H" unicode="H" 
d="M126 161q0 9 9 9t9 -9v-158q0 -9 -9 -9t-9 9v71h-100v-71q0 -9 -8 -9q-10 0 -10 9v158q0 9 10 9q8 0 8 -9v-71h100v71v0z" />
    <glyph glyph-name="I" unicode="I" horiz-adv-x="33" 
d="M8 162q0 9 9 9q8 0 8 -9v-159q0 -9 -8 -9q-9 0 -9 9v159v0z" />
    <glyph glyph-name="J" unicode="J" horiz-adv-x="128" 
d="M101 161q0 9 9 9t9 -9v-108q1 -27 -29 -45q-31 -19 -72 -19q-10 0 -10 9q0 8 10 8q36 0 58 15q24 14 25 32v108v0z" />
    <glyph glyph-name="K" unicode="K" 
d="M124 167q7 4 14 0q6 -5 1 -13l-106 -72l105 -73q6 -6 0 -12q-6 -2 -7 -2t-7 2l-97 68v-62q0 -9 -9 -9q-10 0 -10 9v158q0 9 10 9q9 0 9 -9v-61l97 67v0z" />
    <glyph glyph-name="L" unicode="L" horiz-adv-x="127" 
d="M42 25q14 -15 31 -15h36q10 0 10 -7q0 -9 -10 -9h-36q-26 0 -46 18q-19 19 -19 44v102q0 9 9 9t9 -9v-102q1 -18 16 -31z" />
    <glyph glyph-name="M" unicode="M" horiz-adv-x="190" 
d="M105 154q13 16 30 16q21 0 34 -22t13 -50v-95q0 -9 -8 -9t-8 9v95q0 25 -10 39q-10 16 -21 16q-12 0 -22 -16q-7 -12 -9 -39v-95q0 -9 -9 -9q-8 0 -8 9v95q-2 23 -10 40q-10 15 -22 15q-11 0 -21 -16q-10 -14 -10 -39v-95q0 -9 -7 -9q-9 0 -9 9v158q0 9 7 9q6 6 10 -8v0
q-2 -5 -1 -6.5t5 2.5q13 12 26 12q17 0 30 -16l10 -12l10 12v0z" />
    <glyph glyph-name="N" unicode="N" 
d="M37 157q16 12 39 12q27 0 48 -21q20 -22 20 -50v-95q0 -9 -9 -9t-9 9v95q0 23 -16 39q-13 15 -34 15t-35 -15q-16 -16 -16 -39v-95q0 -9 -8 -9q-9 0 -9 9v157q0 9 9 9q9 2 9 -10l-1 -6v-3q-5 -9 12 7z" />
    <glyph glyph-name="O" unicode="O" horiz-adv-x="160" 
d="M29 145q21 26 52 26q29 0 50 -26q21 -25 21 -62q0 -36 -21 -63q-21 -26 -50 -26q-31 0 -52 26q-21 27 -21 63q0 37 21 62zM41 31q17 -20 40 -20q21 0 38 20q17 23 17 52t-17 52q-17 20 -38 20q-23 0 -40 -20q-17 -23 -17 -52t17 -52z" />
    <glyph glyph-name="P" unicode="P" horiz-adv-x="140" 
d="M26 150q19 19 45 19q25 0 44 -19q17 -20 17 -46q0 -25 -17 -45q-19 -19 -44 -19q-23 0 -40 15q-6 6 -1 11q3 5 7 5q3 0 6 -3q11 -12 28 -12q18 0 30 14q14 14 14 34q0 21 -14 35q-12 13 -30 13q-19 0 -31 -13q-14 -14 -14 -35v-101q0 -9 -8 -9q-9 0 -9 9v97q0 3 -1 4
q1 26 18 46z" />
    <glyph glyph-name="Q" unicode="Q" horiz-adv-x="163" 
d="M29 140q23 27 52 27q30 0 53 -27q21 -26 21 -62q0 -35 -21 -61q-21 -25 -44 -27v-17q0 -8 -9 -8q-8 0 -8 8v17q-22 1 -45 27q-20 26 -20 61q0 37 21 62zM81 36q9 0 9 -7v-22q15 0 32 20q17 23 17 51q0 29 -17 52q-17 20 -41 20q-23 0 -40 -20q-17 -23 -17 -52t16 -51
q17 -20 33 -20v22q0 7 8 7z" />
    <glyph glyph-name="R" unicode="R" horiz-adv-x="140" 
d="M115 153q16 -17 16 -45q2 -28 -17 -47q-12 -12 -34 -15l34 -29q5 -1 7 -12q0 -9 -9 -9h-2l-71 61q-4 0 -4 3q-4 4 -1 11q3 3 9 3l2 -4q10 -6 22 -6h5q20 -2 31 11q11 9 11 29q0 27 -13 41q-9 9 -29 11q-16 0 -28 -9q-15 -13 -18 -39v-105q0 -6 -12 -6q-6 0 -6 6v100v9
q0 22 20 45q17 16 44 16q25 0 43 -20z" />
    <glyph glyph-name="S" unicode="S" horiz-adv-x="149" 
d="M123 8q-17 -14 -42 -14h-63q-3 0 -8 3q-2 4 -2 6q0 6 4 6q1 1 6 1h63q22 0 31 11q8 7 10 22q0 20 -12 29q-11 4 -37 5q-27 1 -42 7q-23 11 -23 40q0 18 12 31q13 16 36 16h62q3 0 6 -3q4 -1 4 -6q0 -3 -3 -6q-6 -2 -7 -2h-62q-13 0 -21 -9q-9 -7 -9 -21q0 -18 12 -26
q7 -3 36 -5q30 -3 44 -9q23 -11 22 -42q0 -22 -17 -34z" />
    <glyph glyph-name="T" unicode="T" 
d="M8 161q0 9 10 9h117q9 0 9 -9q0 -8 -9 -8h-49v-150q0 -9 -10 -9q-9 0 -9 9v150h-49q-10 0 -10 8z" />
    <glyph glyph-name="U" unicode="U" horiz-adv-x="151" 
d="M125 161q0 8 10 8q8 0 8 -8v-97q0 -30 -19 -50q-21 -22 -48 -22q-28 0 -49 22q-19 20 -19 50v97q0 8 10 8q8 0 8 -8v-97q0 -25 15 -41q14 -15 35 -15t34 16q15 16 15 40v97v0z" />
    <glyph glyph-name="V" unicode="V" horiz-adv-x="160" 
d="M80 -6q-7 0 -11 4q-5 3 -6 7l-55 156v4q4 4 7 4q4 4 8 0q2 0 2 -5l54 -152h1l10 27l45 124q0 6 5 6q3 3 6 0q2 0 6 -4l-10 -32l-45 -128q-1 -3 -5 -7q-7 -4 -12 -4z" />
    <glyph glyph-name="W" unicode="W" horiz-adv-x="209" 
d="M184 160q0 9 8 9q9 0 9 -9v-94q0 -30 -16 -50q-13 -22 -37 -22q-17 0 -32 15q-11 11 -11 9q1 4 -2.5 1.5t-8.5 -9.5q-16 -16 -33 -16q-24 0 -38 21q-15 23 -15 51v94q0 9 9 9q8 0 8 -9v-94q0 -23 11 -40q11 -15 25 -15t24 15q8 14 10 40v94q0 9 9 9t9 -9v-94
q2 -27 11 -40q11 -15 24 -15q15 0 25 15q11 17 11 40v94v0z" />
    <glyph glyph-name="X" unicode="X" horiz-adv-x="156" 
d="M129 161q0 8 9 8q10 0 10 -8v-14q0 -23 -15 -43q-13 -18 -17 -19q3 -1 17 -18q15 -16 15 -39v-25q0 -9 -10 -9q-9 0 -9 9v25q0 21 -15 34q-15 15 -36 15q-22 0 -36 -15q-15 -13 -15 -34v-25q0 -9 -9 -9q-10 0 -10 9v25q0 23 15 39q14 17 17 18q-4 1 -17 19q-15 20 -15 43
v14q0 8 10 8q9 0 9 -8v-14q0 -23 15 -39q14 -15 36 -15t35 15q16 16 16 39v14v0z" />
    <glyph glyph-name="Y" unicode="Y" horiz-adv-x="155" 
d="M128 160q0 9 9 9q10 0 10 -9v-27q0 -29 -19 -48q-20 -22 -42 -23v-59q0 -9 -9 -9t-9 9v59q-19 1 -41 20q-19 22 -19 51v27q0 9 10 9q9 0 9 -9v-27q0 -23 15 -39q14 -15 35 -15t36 15q15 17 15 39v27v0z" />
    <glyph glyph-name="Z" unicode="Z" horiz-adv-x="147" 
d="M38 26q-9 -11 -7 -13h98q10 0 10 -8q0 -9 -10 -9h-100q-13 0 -17 10q-4 11 3 18l100 125q2 0 0 2q0 1 -1 1h-85q-9 0 -9 8q0 9 9 9h87q11 0 16 -11l2 -8q0 -5 -3 -10l-93 -114v0z" />
    <glyph glyph-name="a" unicode="a" horiz-adv-x="130" 
d="M99 29q4 0 5 -3v35q0 21 -11 37q-12 14 -28 14q-17 0 -28 -14q-12 -15 -12 -37q0 -19 12 -36q11 -14 28 -14q16 0 27 14q4 4 7 4zM113 -6q-9 0 -9 9v11q-17 -20 -39 -20q-23 0 -41 21q-16 19 -16 46q0 28 16 47q18 20 41 20t40 -20t17 -47v-58q0 -9 -9 -9z" />
    <glyph glyph-name="b" unicode="b" horiz-adv-x="130" 
d="M24 107q18 20 41 20q25 0 41 -21q16 -17 16 -45q0 -29 -16 -46q-16 -21 -41 -21q-23 0 -41 21q-16 17 -16 46v112q0 8 9 8q8 0 8 -8v-112q0 -19 12 -36q11 -14 28 -14t29 14q11 16 11 36t-11 36q-12 13 -29 13q-18 0 -28 -13q-5 -8 -13 0q-3 7 0 10z" />
    <glyph glyph-name="c" unicode="c" horiz-adv-x="134" 
d="M74 11q19 0 33 14q4 4 7 4q4 0 7 -3q5 -5 0 -12q-20 -20 -47 -20q-26 0 -48 20q-18 20 -18 47q0 28 18 47q22 20 48 20q28 0 47 -19q5 -6 0 -11q-5 -8 -13 -1q-13 15 -34 15t-34 -16q-15 -13 -15 -35q0 -21 15 -35q13 -15 34 -15z" />
    <glyph glyph-name="d" unicode="d" horiz-adv-x="132" 
d="M107 173q0 8 9 8q8 0 8 -8v-112q0 -29 -16 -46q-17 -21 -42 -21q-23 0 -41 21q-17 20 -17 46t17 46q18 20 41 20q25 0 41 -19q6 -3 1 -12q-8 -8 -13 1q-12 13 -29 13q-18 0 -28 -13q-13 -13 -13 -36q0 -20 13 -36q11 -14 28 -14t29 14q12 17 12 36v112v0z" />
    <glyph glyph-name="e" unicode="e" horiz-adv-x="134" 
d="M68 130q17 0 33 -11q15 -13 22 -33q3 -14 -5 -14l-78 -33q-9 0 -11 6q-3 5 -1 7l1 1l73 33q-5 11 -13 18q-11 8 -23 8q-17 -3 -29 -17q-10 -14 -10 -35q0 -22 16 -38q13 -8 25 -8q20 2 33 22q5 3 8 3l5 -1q4 -1 4 -8q0 -4 -1 -7q-19 -27 -49 -27q-25 -2 -45 21
q-15 18 -15 46q1 27 16 46q19 21 44 21z" />
    <glyph glyph-name="f" unicode="f" horiz-adv-x="88" 
d="M30 165q20 17 40 17q10 0 10 -8t-10 -8q-14 0 -27 -13q-14 -12 -15 -25h39q10 0 10 -8q0 -9 -10 -9h-41v-108q0 -9 -8 -9q-10 0 -10 9v113v4v0q1 24 22 45z" />
    <glyph glyph-name="g" unicode="g" horiz-adv-x="131" 
d="M24 102q18 19 41 19q24 0 42 -19q16 -17 16 -45v-54q0 -28 -16 -45q-18 -19 -42 -19q-23 0 -41 19q-1 4 0 12q10 4 16 -2q8 -11 25 -11q18 0 28 12q13 13 13 34v54q0 21 -13 34q-10 13 -28 13q-16 0 -27 -14q-13 -12 -13 -33q0 -20 13 -33q10 -13 27 -13t29 13q3 9 12 0
q4 -7 0 -11q-16 -19 -41 -19q-23 0 -41 19q-16 17 -16 44q0 28 16 45z" />
    <glyph glyph-name="h" unicode="h" horiz-adv-x="125" 
d="M33 116q14 11 30 11q22 0 39 -20q15 -19 15 -46v-58q0 -9 -9 -9q-8 0 -8 9v58q0 21 -11 35t-26 14q-16 0 -26 -13q-8 -12 -12 -36v-58q0 -9 -8 -9q-9 0 -9 9v170q0 8 9 8q8 0 8 -8v-68q2 7 8 11z" />
    <glyph glyph-name="i" unicode="i" horiz-adv-x="38" 
d="M11 112q0 8 9 8t9 -8v-109q0 -9 -9 -9t-9 9v109zM27 154q3 -4 3 -8t-3 -7q-4 -4 -8 -4t-7 4q-4 3 -4 7t4 8q3 3 7 3t8 -3z" />
    <glyph glyph-name="j" unicode="j" horiz-adv-x="73" 
d="M46 108q0 9 9 9t9 -9v-104q0 -25 -17 -45q-19 -19 -30 -16q-9 0 -9 9q0 10 9 10q5 -3 16 8q13 13 13 34v104zM63 149q2 -6 2 -8q0 -4 -3 -7t-7 -3q-5 0 -8 3t-3 7t3 8q3 3 8 3t8 -3z" />
    <glyph glyph-name="k" unicode="k" horiz-adv-x="121" 
d="M98 113q15 -16 15 -37q0 -19 -15 -31q-14 -11 -21 -13l33 -23q3 -3 3 -9q-3 -6 -9 -6l-6 2l-50 36q-6 3 -2 10q0 4 8 4q15 0 28 8q13 9 13 22q0 16 -10 23q-11 11 -24 11q-14 0 -25 -11q-11 -9 -11 -23v-73q0 -9 -8 -9q-9 0 -9 9v170q0 8 9 8q8 0 8 -8v-59q2 2 9 5
q13 8 27 8q20 0 37 -14z" />
    <glyph glyph-name="l" unicode="l" horiz-adv-x="34" 
d="M8 174q0 8 8 8q10 0 10 -8v-171q0 -9 -10 -9q-8 0 -8 9v171v0z" />
    <glyph glyph-name="m" unicode="m" horiz-adv-x="199" 
d="M110 116q13 13 31 13q22 0 36 -20t14 -47v-58q0 -9 -9 -9q-8 0 -8 9v58q0 23 -10 36q-11 14 -23 14q-11 0 -22 -14q-6 -5 -11 -36v-58q0 -9 -9 -9q-8 0 -8 9v58q-1 24 -10 36q-11 14 -23 14t-23 -14q-10 -13 -10 -36v-58q0 -9 -8 -9q-9 0 -9 9v117q0 8 9 8q8 0 8 -8v-4
q-1 -4 6 2q11 10 27 10q17 0 30 -12q14 -14 12 -17q2 8 10 16z" />
    <glyph glyph-name="n" unicode="n" horiz-adv-x="129" 
d="M34 117q13 10 30 10q23 0 40 -20t17 -46v-58q0 -9 -10 -9q-8 0 -8 9v58q0 22 -12 35q-10 15 -27 15q-16 0 -27 -14q-12 -15 -12 -36v-58q0 -9 -8 -9q-9 0 -9 9v116q0 8 9 8q8 0 8 -8v-14q1 7 9 12z" />
    <glyph glyph-name="o" unicode="o" horiz-adv-x="137" 
d="M24 108q20 20 44 20t44 -20q17 -20 17 -47q0 -26 -17 -46q-19 -21 -44 -21t-43 21q-17 20 -17 46q0 28 16 47zM38 25q12 -14 30 -14t30 14q13 14 13 36q0 21 -13 37q-12 14 -30 14t-30 -14q-13 -16 -13 -37q0 -22 13 -36z" />
    <glyph glyph-name="p" unicode="p" horiz-adv-x="129" 
d="M24 104q17 20 40 20t40 -20q17 -19 17 -44q0 -26 -17 -45q-17 -20 -40 -20q-22 0 -40 20q-3 5 0 10q4 4 7 4q5 0 6 -4q10 -13 27 -13q16 0 28 14q11 14 11 34q0 18 -11 34q-12 13 -28 13q-17 0 -27 -13q-12 -15 -12 -34v-108q0 -9 -8 -9q-9 0 -9 9v108q0 27 16 44z" />
    <glyph glyph-name="q" unicode="q" horiz-adv-x="130" 
d="M65 124q23 0 40 -20q17 -19 17 -44v-108q0 -9 -9 -9t-9 9v108q0 21 -13 34q-10 13 -26 13q-17 0 -27 -13q-13 -14 -13 -34t12 -34q11 -14 28 -14t27 13q5 5 8 5q2 0 4 -5q7 -4 1 -10q-17 -20 -40 -20t-41 20q-16 17 -16 45q0 27 16 44q18 20 41 20z" />
    <glyph glyph-name="r" unicode="r" horiz-adv-x="90" 
d="M82 120q0 -8 -15 -8v0q-15 0 -27 -14q-14 -16 -14 -37v-58q0 -9 -8 -9q-10 0 -10 9v117q0 8 10 8q8 0 8 -8v-14q2 6 11 11q16 11 30 11v0q15 0 15 -8z" />
    <glyph glyph-name="s" unicode="s" horiz-adv-x="123" 
d="M63 78q26 0 39 -13t13 -29t-13 -29t-36 -13h-48q-10 0 -10 9q0 8 10 8h48q16 0 23 9q7 4 7 16t-7 16q-7 9 -34 9t-38 10q-9 11 -9 24q0 14 9 24q11 10 31 10h48q9 0 9 -8t-9 -8h-48q-11 0 -16 -5q-5 -7 -5 -13q0 -8 4 -11q6 -6 32 -6z" />
    <glyph glyph-name="t" unicode="t" horiz-adv-x="86" 
d="M78 101q0 -9 -8 -9h-45v-42q0 -19 13 -29q13 -13 32 -13q8 0 8 -8t-8 -8q-27 0 -44 16q-18 20 -18 42v97q0 8 9 8q8 0 8 -8v-39h45q8 0 8 -7z" />
    <glyph glyph-name="u" unicode="u" horiz-adv-x="127" 
d="M110 127q9 0 9 -8v-116q0 -9 -9 -9q-8 0 -8 9v9q-1 -3 -8 -6q-13 -12 -31 -12q-22 0 -39 20q-16 19 -16 47v58q0 8 9 8q8 0 8 -8v-58q0 -21 12 -36q11 -14 26 -14q16 0 27 14q12 15 12 36v58q0 8 8 8z" />
    <glyph glyph-name="v" unicode="v" horiz-adv-x="135" 
d="M117 126q7 -1 7 -6q0 -1 -2 -5l-46 -115q-1 -6 -8 -6t-9 6l-45 115q-6 8 5 11q7 1 10 -5l39 -96l39 96q3 5 7 5h3z" />
    <glyph glyph-name="w" unicode="w" horiz-adv-x="186" 
d="M85 9q-13 -15 -30 -15q-21 0 -33 20q-14 20 -14 46v58q0 8 9 8q8 0 8 -8v-58q0 -21 10 -35q9 -14 20 -14q10 0 21 14q9 17 9 35v58q0 8 8 8q9 0 9 -8v-58q0 -21 10 -35q8 -14 20 -14q9 0 20 14q10 14 10 35v58q0 8 9 8q7 0 7 -8v-58q0 -20 -4 -29q-5 -14 -17 -26
q-11 -11 -25 -11q-15 0 -29 15q-7 7 -9 14q-2 -5 -9 -14z" />
    <glyph glyph-name="x" unicode="x" horiz-adv-x="122" 
d="M96 118q0 8 10 8q8 0 8 -8v-8q0 -20 -10 -37q-9 -13 -12 -15l11 -15q11 -17 11 -34v-6q0 -9 -8 -9q-10 0 -10 9v6q0 17 -11 28q-9 12 -24 12q-13 0 -24 -12q-12 -10 -12 -28v-6q0 -9 -8 -9q-9 0 -9 9v6q0 23 15 39q7 9 8 9l-8 11q-15 17 -15 42v8q0 8 9 8q8 0 8 -8v-8
q0 -18 11 -32q10 -13 25 -13t25 13t10 32v8v0z" />
    <glyph glyph-name="y" unicode="y" horiz-adv-x="129" 
d="M112 122q9 0 9 -9v-112q0 -25 -17 -44q-17 -20 -40 -20q-31 0 -46 28q-4 6 1 13q9 1 13 -3q13 -21 32 -21q16 0 28 13q11 16 11 34v8q-2 -4 -9 -5q-11 -10 -30 -10q-24 0 -40 19q-16 17 -16 44v56q0 9 9 9q8 0 8 -9v-56q0 -19 12 -34q10 -13 27 -13q16 0 28 13
q11 16 11 34v56q0 9 9 9z" />
    <glyph glyph-name="z" unicode="z" horiz-adv-x="125" 
d="M34 11h73q8 0 8 -8q0 -9 -8 -9h-90q-6 0 -8 6q-1 8 3 9l76 101h-71q-9 0 -9 8t9 8h90q5 0 6 -4q4 -4 -1 -9z" />
  </font>
</defs>
</svg>
